<svg xmlns="http://www.w3.org/2000/svg" xmlns:xlink="http://www.w3.org/1999/xlink" width="576" height="576" viewBox="0 0 432 432"><path d="M0 432h432V0H0z" fill="#fff"/><path d="M375.875 216A156.35 156.35 0 0 0 279.36 71.554a156.35 156.35 0 0 0-170.386 33.892 156.35 156.35 0 0 0-33.891 170.385 156.35 156.35 0 0 0 144.445 96.516 156.35 156.35 0 0 0 144.446-96.516A156.35 156.35 0 0 0 375.875 216m-156.347 0z" fill="#fff"/><clipPath id="a"><path transform="matrix(1 0 0 -1 0 432)" d="M375.875 216a156.35 156.35 0 0 1-96.515 144.446 156.35 156.35 0 0 1-170.386-33.892 156.35 156.35 0 0 1-33.891-170.385 156.35 156.35 0 0 1 144.445-96.516 156.35 156.35 0 0 1 144.446 96.516A156.35 156.35 0 0 1 375.875 216m-156.347 0z"/></clipPath><g clip-path="url(#a)"><path d="m303.2 132.329-182.406-15.063 14.146 183.323 163.576-5.602z" fill="#1f77b4" fill-opacity=".25"/></g><clipPath id="b"><path transform="matrix(1 0 0 -1 0 432)" d="M375.875 216a156.35 156.35 0 0 1-96.515 144.446 156.35 156.35 0 0 1-170.386-33.892 156.35 156.35 0 0 1-33.891-170.385 156.35 156.35 0 0 1 144.445-96.516 156.35 156.35 0 0 1 144.446 96.516A156.35 156.35 0 0 1 375.875 216m-156.347 0z"/></clipPath><g clip-path="url(#b)"><path d="M307.503 128.025 112.44 108.911l-1.963 216.14 205.665-12.437z" fill="#ff7f0e" fill-opacity=".25"/></g><clipPath id="c"><path transform="matrix(1 0 0 -1 0 432)" d="M375.875 216a156.35 156.35 0 0 1-96.515 144.446 156.35 156.35 0 0 1-170.386-33.892 156.35 156.35 0 0 1-33.891-170.385 156.35 156.35 0 0 1 144.445-96.516 156.35 156.35 0 0 1 144.446 96.516A156.35 156.35 0 0 1 375.875 216m-156.347 0z"/></clipPath><g clip-path="url(#c)" stroke-width=".8" stroke-linecap="square" stroke-linejoin="round" fill="none" stroke="#bebebe"><path d="m219.528 216 110.554-110.554M219.528 216 108.974 105.446M219.528 216 108.974 326.554M219.528 216l110.554 110.554"/></g><clipPath id="d"><path transform="matrix(1 0 0 -1 0 432)" d="M375.875 216a156.35 156.35 0 0 1-96.515 144.446 156.35 156.35 0 0 1-170.386-33.892 156.35 156.35 0 0 1-33.891-170.385 156.35 156.35 0 0 1 144.445-96.516 156.35 156.35 0 0 1 144.446 96.516A156.35 156.35 0 0 1 375.875 216m-156.347 0z"/></clipPath><g clip-path="url(#d)" stroke-width=".8" stroke-linecap="square" stroke-linejoin="round" fill="none" stroke="#bebebe"><path d="M237.43 216a17.902 17.902 0 1 0-35.804 0 17.902 17.902 0 0 0 35.804 0"/><path d="M273.233 216a53.706 53.706 0 0 0-74.257-49.616 53.706 53.706 0 0 0 0 99.232A53.706 53.706 0 0 0 273.233 216"/><path d="M309.035 216a89.51 89.51 0 0 0-89.507-89.507A89.508 89.508 0 1 0 309.035 216"/><path d="M344.838 216a125.313 125.313 0 0 0-125.31-125.31A125.313 125.313 0 0 0 94.218 216a125.313 125.313 0 0 0 125.31 125.31A125.313 125.313 0 0 0 344.838 216"/></g><clipPath id="e"><path transform="matrix(1 0 0 -1 0 432)" d="M375.875 216a156.35 156.35 0 0 1-96.515 144.446 156.35 156.35 0 0 1-170.386-33.892 156.35 156.35 0 0 1-33.891-170.385 156.35 156.35 0 0 1 144.445-96.516 156.35 156.35 0 0 1 144.446 96.516A156.35 156.35 0 0 1 375.875 216m-156.347 0z"/></clipPath><g clip-path="url(#e)"><path stroke-width="2.5" stroke-linecap="square" stroke-linejoin="round" fill="none" stroke="#1f77b4" d="m303.2 132.329-182.406-15.063 14.146 183.323 163.576-5.602 4.683-162.658"/><clipPath id="f"><path transform="matrix(1 0 0 -1 303.2 132.329)" d="M-8-8H8V8H-8z"/></clipPath><g clip-path="url(#f)"><path d="M303.2 135.329a3 3 0 1 0 0-6 3 3 0 0 0 0 6z" fill="#1f77b4"/><path stroke-linejoin="round" fill="none" stroke="#1f77b4" d="M303.2 135.329a3 3 0 1 0 0-6 3 3 0 0 0 0 6z"/></g><clipPath id="g"><path transform="matrix(1 0 0 -1 120.794 117.266)" d="M-8-8H8V8H-8z"/></clipPath><g clip-path="url(#g)"><path d="M120.794 120.266a3 3 0 1 0 0-6 3 3 0 0 0 0 6z" fill="#1f77b4"/><path stroke-linejoin="round" fill="none" stroke="#1f77b4" d="M120.794 120.266a3 3 0 1 0 0-6 3 3 0 0 0 0 6z"/></g><clipPath id="h"><path transform="matrix(1 0 0 -1 134.94 300.589)" d="M-8-8H8V8H-8z"/></clipPath><g clip-path="url(#h)"><path d="M134.94 303.589a3 3 0 1 0 0-6 3 3 0 0 0 0 6z" fill="#1f77b4"/><path stroke-linejoin="round" fill="none" stroke="#1f77b4" d="M134.94 303.589a3 3 0 1 0 0-6 3 3 0 0 0 0 6z"/></g><clipPath id="i"><path transform="matrix(1 0 0 -1 298.516 294.987)" d="M-8-8H8V8H-8z"/></clipPath><g clip-path="url(#i)"><path d="M298.516 297.987a3 3 0 1 0 0-6 3 3 0 0 0 0 6z" fill="#1f77b4"/><path stroke-linejoin="round" fill="none" stroke="#1f77b4" d="M298.516 297.987a3 3 0 1 0 0-6 3 3 0 0 0 0 6z"/></g><clipPath id="j"><path transform="matrix(1 0 0 -1 303.2 132.33)" d="M-8-8H8V8H-8z"/></clipPath><g clip-path="url(#j)"><path d="M303.2 135.33a3 3 0 1 0 0-6.001 3 3 0 0 0 0 6z" fill="#1f77b4"/><path stroke-linejoin="round" fill="none" stroke="#1f77b4" d="M303.2 135.33a3 3 0 1 0 0-6.001 3 3 0 0 0 0 6z"/></g></g><clipPath id="k"><path transform="matrix(1 0 0 -1 0 432)" d="M375.875 216a156.35 156.35 0 0 1-96.515 144.446 156.35 156.35 0 0 1-170.386-33.892 156.35 156.35 0 0 1-33.891-170.385 156.35 156.35 0 0 1 144.445-96.516 156.35 156.35 0 0 1 144.446 96.516A156.35 156.35 0 0 1 375.875 216m-156.347 0z"/></clipPath><g clip-path="url(#k)"><path stroke-width="2.5" stroke-linecap="square" stroke-linejoin="round" fill="none" stroke="#ff7f0e" d="M307.503 128.025 112.44 108.911l-1.963 216.14 205.665-12.437-8.639-184.589"/><clipPath id="l"><path transform="matrix(1 0 0 -1 307.503 128.025)" d="M-8-8H8V8H-8z"/></clipPath><g clip-path="url(#l)"><path d="M307.503 131.025a3 3 0 1 0 0-6 3 3 0 0 0 0 6z" fill="#ff7f0e"/><path stroke-linejoin="round" fill="none" stroke="#ff7f0e" d="M307.503 131.025a3 3 0 1 0 0-6 3 3 0 0 0 0 6z"/></g><clipPath id="m"><path transform="matrix(1 0 0 -1 112.44 108.911)" d="M-8-8H8V8H-8z"/></clipPath><g clip-path="url(#m)"><path d="M112.44 111.911a3 3 0 1 0 0-6 3 3 0 0 0 0 6z" fill="#ff7f0e"/><path stroke-linejoin="round" fill="none" stroke="#ff7f0e" d="M112.44 111.911a3 3 0 1 0 0-6 3 3 0 0 0 0 6z"/></g><clipPath id="n"><path transform="matrix(1 0 0 -1 110.478 325.05)" d="M-8-8H8V8H-8z"/></clipPath><g clip-path="url(#n)"><path d="M110.478 328.05a3 3 0 1 0 0-6 3 3 0 0 0 0 6z" fill="#ff7f0e"/><path stroke-linejoin="round" fill="none" stroke="#ff7f0e" d="M110.478 328.05a3 3 0 1 0 0-6 3 3 0 0 0 0 6z"/></g><clipPath id="o"><path transform="matrix(1 0 0 -1 316.142 312.614)" d="M-8-8H8V8H-8z"/></clipPath><g clip-path="url(#o)"><path d="M316.142 315.614a3 3 0 1 0 0-6 3 3 0 0 0 0 6z" fill="#ff7f0e"/><path stroke-linejoin="round" fill="none" stroke="#ff7f0e" d="M316.142 315.614a3 3 0 1 0 0-6 3 3 0 0 0 0 6z"/></g><clipPath id="p"><path transform="matrix(1 0 0 -1 307.503 128.025)" d="M-8-8H8V8H-8z"/></clipPath><g clip-path="url(#p)"><path d="M307.503 131.025a3 3 0 1 0 0-6 3 3 0 0 0 0 6z" fill="#ff7f0e"/><path stroke-linejoin="round" fill="none" stroke="#ff7f0e" d="M307.503 131.025a3 3 0 1 0 0-6 3 3 0 0 0 0 6z"/></g></g><symbol id="q"><path transform="translate(-.092) scale(.001)" d="M384 447c29 0 51 6 67 19 15 13 23 32 23 58 0 25-8 44-23 57-16 13-38 20-67 20H280V447h104zm6-319c38 0 66 8 85 24s29 40 29 72c0 31-10 55-29 71s-47 24-85 24H280V128h110zm175 262c40-12 71-33 93-65s34-70 34-116c0-70-24-123-72-157C572 17 500 0 404 0H92v729h282c101 0 174-16 220-46 45-31 68-80 68-147 0-36-9-66-25-91-17-25-41-43-72-55z"/></symbol><symbol id="r"><path transform="translate(-.092) scale(.001)" d="M280 587V142h67c76 0 135 19 176 57 40 38 61 93 61 166 0 72-21 127-61 165s-99 57-176 57h-67zM92 729h198c110 0 193-8 247-24s101-42 140-80c34-33 59-71 76-114 16-43 25-92 25-146 0-55-9-104-25-147-17-44-42-82-76-114-40-38-87-65-141-81C481 7 399 0 290 0H92v729z"/></symbol><symbol id="s"><path transform="matrix(.001 0 0 .001 -.054 -.217)" d="M54 359h307V217H54v142z"/></symbol><symbol id="t"><path transform="translate(-.084) scale(.001)" d="M490 398c-16 7-31 12-46 16-15 3-30 5-45 5-45 0-80-15-104-43-24-29-36-70-36-124V0H84v547h175v-90c22 36 47 62 77 78 29 16 64 25 105 25 6 0 12-1 19-1 6 0 16-1 30-3V398z"/></symbol><symbol id="u"><path transform="matrix(.001 0 0 .001 -.043 .013)" d="M329 246c-37 0-65-7-83-19s-27-30-27-54c0-22 7-40 22-52 15-13 36-19 62-19 33 0 61 11 83 35s34 53 34 89v20h-91zm267 66V0H420v81c-24-34-50-58-79-72-30-14-65-22-107-22-57 0-103 16-138 49-36 32-53 75-53 128 0 64 22 111 66 141s113 45 208 45h103v14c0 27-11 47-33 60s-56 20-102 20c-38 0-73-4-105-12s-62-19-89-33v133c37 9 74 16 112 21 38 4 76 7 114 7 98 0 169-20 213-59s66-102 66-189z"/></symbol><symbol id="v"><path transform="translate(-.013) scale(.001)" d="M275 702V547h180V422H275V190c0-26 5-43 15-52s30-13 60-13h90V0H290c-69 0-118 14-147 43-29 28-43 77-43 147v232H13v125h87v155h175z"/></symbol><symbol id="w"><path transform="matrix(.001 0 0 .001 -.043 .013)" d="M630 275v-50H221c4-41 19-72 45-92 25-21 60-31 106-31 36 0 74 5 113 16 38 11 78 28 119 50V33C562 17 521 6 480-1c-42-8-83-12-124-12-99 0-176 25-231 75S43 182 43 273c0 89 27 159 81 210s128 77 222 77c86 0 154-26 206-78s78-121 78-207zm-180 58c0 33-10 60-29 80-20 20-45 31-76 31-34 0-62-10-83-29s-34-46-39-82h227z"/></symbol><use xlink:href="#q" transform="matrix(12 0 0 -12 331.502 109.4)"/><use xlink:href="#r" transform="matrix(12 0 0 -12 340.646 109.4)"/><use xlink:href="#s" transform="matrix(12 0 0 -12 350.369 106.796)"/><use xlink:href="#t" transform="matrix(12 0 0 -12 355.709 109.4)"/><use xlink:href="#u" transform="matrix(12 0 0 -12 361.133 109.556)"/><use xlink:href="#v" transform="matrix(12 0 0 -12 368.873 109.4)"/><use xlink:href="#w" transform="matrix(12 0 0 -12 374.969 109.556)"/><use xlink:href="#x" transform="matrix(12 0 0 -12 382.589 109.4)"/><symbol id="y"><path transform="matrix(.001 0 0 .001 -.086 .131)" d="M377-131H232C182-50 145 26 121 98S86 241 86 313c0 71 12 143 36 216s60 150 110 230h145c-42-78-74-153-94-227-21-74-31-146-31-218s10-145 31-219c20-74 52-148 94-226z"/></symbol><symbol id="z"><path transform="matrix(.001 0 0 .001 -.032 .013)" d="M775 301c-24 0-42-10-54-30-13-20-19-49-19-86 0-38 6-66 19-86 12-20 30-30 54-30 23 0 41 10 53 30s19 48 19 86c0 37-7 66-19 86s-30 30-53 30zm0 82c60 0 108-18 143-53 34-36 52-84 52-145 0-62-18-110-52-145-35-36-83-53-143-53-61 0-109 17-144 53-35 35-52 83-52 145 0 61 17 109 52 145 35 35 83 53 144 53zM327-13H219l456 755h108L327-13zM227 742c60 0 108-18 143-53 34-36 52-84 52-145 0-62-18-110-52-146-35-36-83-53-143-53-61 0-109 17-143 53-35 36-52 84-52 146 0 61 17 109 52 145 34 35 82 53 143 53zm0-82c-24 0-42-10-54-30-13-20-19-49-19-86 0-38 6-67 19-87 12-20 30-30 54-30 23 0 41 10 54 30 12 20 19 49 19 87 0 37-7 66-19 86-13 20-31 30-54 30z"/></symbol><symbol id="A"><path transform="matrix(.001 0 0 .001 -.053 .141)" d="M102 189h176V40L157-141H53l49 181v149z"/></symbol><symbol id="B"><path transform="translate(-.092) scale(.001)" d="M92 729h312c92 0 163-21 213-62 50-42 75-100 75-176 0-77-25-136-75-177s-121-61-213-61H280V0H92v729zm188-136V389h104c36 0 64 8 84 26s30 43 30 76c0 32-10 57-30 75s-48 27-84 27H280z"/></symbol><symbol id="C"><path transform="matrix(.001 0 0 .001 -.072 .013)" d="M599 706V552c-40 18-79 31-117 40s-74 14-108 14c-45 0-78-7-100-19s-32-31-32-57c0-20 7-36 22-46 14-11 41-20 79-28l80-16c80-16 138-41 172-74 34-34 52-81 52-142 0-80-24-140-72-179S455-13 357-13c-46 0-93 5-139 13-47 8-94 20-140 38v159c46-25 91-44 135-56 43-13 85-19 126-19 40 0 72 6 94 20s33 33 33 59c0 22-8 40-23 52s-44 24-88 34l-73 16c-73 16-126 41-160 75s-50 80-50 138c0 72 23 128 70 167 46 39 114 59 202 59 40 0 81-3 123-9s86-15 132-27z"/></symbol><symbol id="D"><path transform="translate(-.092) scale(.001)" d="M92 729h210l265-500v500h178V0H535L270 500V0H92v729z"/></symbol><symbol id="E"><path transform="translate(-.092) scale(.001)" d="M359 406c39 0 67 7 84 22 17 14 26 38 26 72 0 33-9 57-26 71s-45 22-84 22h-79V406h79zm-79-130V0H92v729h287c96 0 166-17 211-49 44-32 67-83 67-152 0-48-12-88-35-119-24-31-59-54-105-68 26-6 49-20 69-40 20-21 41-52 62-94L750 0H550l-89 181c-18 36-37 61-55 75-18 13-43 20-73 20h-53z"/></symbol><symbol id="F"><path transform="translate(.009) scale(.001)" d="M-9 729h205l166-260 166 260h206L456 307V0H268v307L-9 729z"/></symbol><symbol id="G"><path transform="matrix(.001 0 0 .001 -.08 .131)" d="M80-131c42 78 73 152 94 226 20 74 31 147 31 219s-11 144-31 218c-21 74-52 149-94 227h145c49-80 86-157 110-230s36-145 36-216c0-72-12-143-36-215S275-50 225-131H80z"/></symbol><use xlink:href="#x" transform="matrix(12 0 0 -12 330.398 122.85)"/><use xlink:href="#y" transform="matrix(12 0 0 -12 335.606 124.422)"/><use xlink:href="#z" transform="matrix(12 0 0 -12 340.442 123.006)"/><use xlink:href="#A" transform="matrix(12 0 0 -12 352.718 124.542)"/><use xlink:href="#x" transform="matrix(12 0 0 -12 356.642 122.85)"/><use xlink:href="#B" transform="matrix(12 0 0 -12 361.922 122.85)"/><use xlink:href="#C" transform="matrix(12 0 0 -12 370.478 123.006)"/><use xlink:href="#D" transform="matrix(12 0 0 -12 379.358 122.85)"/><use xlink:href="#E" transform="matrix(12 0 0 -12 389.402 122.85)"/><use xlink:href="#s" transform="matrix(12 0 0 -12 398.186 120.246)"/><use xlink:href="#F" transform="matrix(12 0 0 -12 400.66 122.85)"/><use xlink:href="#G" transform="matrix(12 0 0 -12 410.416 124.422)"/><use xlink:href="#q" transform="matrix(12 0 0 -12 13.278 115.93)"/><use xlink:href="#r" transform="matrix(12 0 0 -12 22.422 115.93)"/><use xlink:href="#s" transform="matrix(12 0 0 -12 32.144 113.325)"/><use xlink:href="#t" transform="matrix(12 0 0 -12 37.484 115.93)"/><use xlink:href="#u" transform="matrix(12 0 0 -12 42.908 116.085)"/><use xlink:href="#v" transform="matrix(12 0 0 -12 50.648 115.93)"/><use xlink:href="#w" transform="matrix(12 0 0 -12 56.744 116.085)"/><use xlink:href="#x" transform="matrix(12 0 0 -12 64.364 115.93)"/><symbol id="H"><path transform="matrix(.001 0 0 .001 -.092 .013)" d="M92 729h188V292c0-60 9-103 29-129s52-39 97-39c44 0 76 13 96 39s30 69 30 129v437h188V292c0-104-26-180-78-230S512-13 406-13 221 12 169 62 92 188 92 292v437z"/></symbol><symbol id="I"><path transform="translate(-.005) scale(.001)" d="M5 729h189l193-538 193 538h189L499 0H275L5 729z"/></symbol><use xlink:href="#x" transform="matrix(12 0 0 -12 12.174 129.38)"/><use xlink:href="#y" transform="matrix(12 0 0 -12 17.382 130.951)"/><use xlink:href="#z" transform="matrix(12 0 0 -12 22.218 129.535)"/><use xlink:href="#A" transform="matrix(12 0 0 -12 34.494 131.071)"/><use xlink:href="#x" transform="matrix(12 0 0 -12 38.418 129.38)"/><use xlink:href="#B" transform="matrix(12 0 0 -12 43.698 129.38)"/><use xlink:href="#C" transform="matrix(12 0 0 -12 52.254 129.535)"/><use xlink:href="#D" transform="matrix(12 0 0 -12 61.134 129.38)"/><use xlink:href="#E" transform="matrix(12 0 0 -12 71.178 129.38)"/><use xlink:href="#s" transform="matrix(12 0 0 -12 79.962 126.775)"/><use xlink:href="#F" transform="matrix(12 0 0 -12 82.436 129.38)"/><use xlink:href="#H" transform="matrix(12 0 0 -12 92.336 129.535)"/><use xlink:href="#I" transform="matrix(12 0 0 -12 101.036 129.38)"/><use xlink:href="#G" transform="matrix(12 0 0 -12 111.224 130.951)"/><use xlink:href="#q" transform="matrix(12 0 0 -12 23.558 316.953)"/><use xlink:href="#r" transform="matrix(12 0 0 -12 32.702 316.953)"/><use xlink:href="#s" transform="matrix(12 0 0 -12 42.425 314.349)"/><use xlink:href="#t" transform="matrix(12 0 0 -12 47.765 316.953)"/><use xlink:href="#u" transform="matrix(12 0 0 -12 53.189 317.109)"/><use xlink:href="#v" transform="matrix(12 0 0 -12 60.929 316.953)"/><use xlink:href="#w" transform="matrix(12 0 0 -12 67.025 317.109)"/><use xlink:href="#x" transform="matrix(12 0 0 -12 74.645 316.953)"/><symbol id="J"><path transform="translate(-.092) scale(.001)" d="M92 729h239l166-390 167 390h239V0H725v533L557 140H438L270 533V0H92v729z"/></symbol><symbol id="K"><path transform="translate(-.005) scale(.001)" d="M534 133H240L194 0H5l270 729h224L769 0H580l-46 133zM287 268h200L387 558 287 268z"/></symbol><symbol id="L"><path transform="translate(-.092) scale(.001)" d="M92 729h507V587H280V451h300V309H280V0H92v729z"/></symbol><use xlink:href="#x" transform="matrix(12 0 0 -12 22.454 330.403)"/><use xlink:href="#y" transform="matrix(12 0 0 -12 27.662 331.975)"/><use xlink:href="#z" transform="matrix(12 0 0 -12 32.498 330.559)"/><use xlink:href="#A" transform="matrix(12 0 0 -12 44.774 332.095)"/><use xlink:href="#x" transform="matrix(12 0 0 -12 48.698 330.403)"/><use xlink:href="#I" transform="matrix(12 0 0 -12 52.934 330.403)"/><use xlink:href="#J" transform="matrix(12 0 0 -12 63.266 330.403)"/><use xlink:href="#K" transform="matrix(12 0 0 -12 74.162 330.403)"/><use xlink:href="#L" transform="matrix(12 0 0 -12 84.494 330.403)"/><use xlink:href="#G" transform="matrix(12 0 0 -12 92.546 331.975)"/><use xlink:href="#q" transform="matrix(12 0 0 -12 340.885 320.303)"/><use xlink:href="#r" transform="matrix(12 0 0 -12 350.03 320.303)"/><use xlink:href="#s" transform="matrix(12 0 0 -12 359.752 317.7)"/><use xlink:href="#t" transform="matrix(12 0 0 -12 365.092 320.303)"/><use xlink:href="#u" transform="matrix(12 0 0 -12 370.516 320.46)"/><use xlink:href="#v" transform="matrix(12 0 0 -12 378.256 320.303)"/><use xlink:href="#w" transform="matrix(12 0 0 -12 384.352 320.46)"/><use xlink:href="#x" transform="matrix(12 0 0 -12 391.972 320.303)"/><symbol id="M"><path transform="translate(-.084) scale(.001)" d="M634 333V0H458v255c0 47-1 79-3 97s-6 31-11 40c-7 11-16 20-28 26s-26 10-40 10c-37 0-66-14-86-42-21-28-31-67-31-117V0H84v547h175v-80c26 32 53 55 83 70s63 23 99 23c63 0 111-20 144-58 32-39 49-95 49-169z"/></symbol><use xlink:href="#x" transform="matrix(12 0 0 -12 339.781 333.753)"/><use xlink:href="#y" transform="matrix(12 0 0 -12 344.99 335.325)"/><use xlink:href="#z" transform="matrix(12 0 0 -12 349.825 333.91)"/><use xlink:href="#A" transform="matrix(12 0 0 -12 362.101 335.445)"/><use xlink:href="#x" transform="matrix(12 0 0 -12 366.025 333.753)"/><use xlink:href="#M" transform="matrix(12 0 0 -12 371.21 333.753)"/><use xlink:href="#I" transform="matrix(12 0 0 -12 378.805 333.753)"/><use xlink:href="#J" transform="matrix(12 0 0 -12 389.137 333.753)"/><use xlink:href="#K" transform="matrix(12 0 0 -12 400.033 333.753)"/><use xlink:href="#L" transform="matrix(12 0 0 -12 410.365 333.753)"/><use xlink:href="#G" transform="matrix(12 0 0 -12 418.417 335.325)"/><symbol id="N"><path transform="translate(-.113) scale(.001)" d="M117 130h166v471l-170-35v128l169 35h179V130h166V0H117v130z"/></symbol><symbol id="O"><path transform="translate(-.102) scale(.001)" d="M102 189h176V0H102v189z"/></symbol><symbol id="P"><path transform="matrix(.001 0 0 .001 -.077 .013)" d="M106 729h467V591H256V478c14 4 28 7 43 9 14 2 29 3 45 3 89 0 158-23 208-67 49-44 74-106 74-185S599 97 545 53 416-13 321-13c-42 0-83 4-123 12-41 7-81 19-121 35v148c40-23 77-40 113-51 36-12 69-17 101-17 45 0 81 11 107 33s40 53 40 91-14 68-40 90-62 34-107 34c-28 0-57-4-87-11s-63-18-98-32v410z"/></symbol><use xlink:href="#N" transform="matrix(12 0 0 -12 179.068 175.67)"/><use xlink:href="#O" transform="matrix(12 0 0 -12 187.288 175.67)"/><use xlink:href="#P" transform="matrix(12 0 0 -12 191.548 175.825)"/><symbol id="Q"><path transform="translate(-.079) scale(.001)" d="M288 138h321V0H79v138l266 235c24 21 41 42 53 63 11 20 17 42 17 64 0 34-12 61-35 82s-53 32-91 32c-30 0-62-7-96-19-35-13-72-32-112-56v160c42 14 84 24 126 32 41 7 81 11 121 11 87 0 155-20 203-58s73-92 73-160c0-40-11-78-31-112-21-34-64-80-129-137L288 138z"/></symbol><use xlink:href="#Q" transform="matrix(12 0 0 -12 152.11 151.65)"/><use xlink:href="#O" transform="matrix(12 0 0 -12 160.738 151.65)"/><use xlink:href="#P" transform="matrix(12 0 0 -12 164.998 151.806)"/><symbol id="R"><path transform="matrix(.001 0 0 .001 -.067 .013)" d="M466 393c49-13 86-35 112-66 25-32 38-72 38-120 0-72-28-127-83-164-56-38-136-56-242-56-38 0-75 3-113 9-38 5-75 14-111 26v145c35-18 70-31 105-40 34-9 68-13 102-13 50 0 88 8 114 26 26 17 40 42 40 74 0 33-14 58-41 75s-67 26-120 26h-75v121h79c47 0 82 7 105 22 23 14 35 37 35 68 0 28-12 49-34 65-22 15-54 23-95 23-30 0-61-4-92-11s-62-17-92-30v138c37 10 74 18 110 23s72 8 108 8c94 0 165-16 212-47s71-78 71-140c0-43-12-78-34-105s-55-46-99-57z"/></symbol><use xlink:href="#R" transform="matrix(12 0 0 -12 125.415 127.786)"/><use xlink:href="#O" transform="matrix(12 0 0 -12 134.187 127.63)"/><use xlink:href="#P" transform="matrix(12 0 0 -12 138.447 127.786)"/><symbol id="S"><path transform="translate(-.045) scale(.001)" d="M368 574 162 269h206v305zm-31 155h209V269h104V133H546V0H368v133H45v161l292 435z"/></symbol><use xlink:href="#S" transform="matrix(12 0 0 -12 98.601 103.61)"/><use xlink:href="#O" transform="matrix(12 0 0 -12 107.637 103.61)"/><use xlink:href="#P" transform="matrix(12 0 0 -12 111.897 103.767)"/><use xlink:href="#R" transform="matrix(12 0 0 -12 181.725 263.889)"/><use xlink:href="#P" transform="matrix(12 0 0 -12 156.528 289.205)"/><symbol id="T"><path transform="translate(-.067) scale(.001)" d="M67 729h549V623L332 0H149l269 591H67v138z"/></symbol><use xlink:href="#T" transform="matrix(12 0 0 -12 131.092 314.366)"/><symbol id="U"><path transform="matrix(.001 0 0 .001 -.052 .013)" d="M100 16v135c30-14 58-25 86-32 27-7 54-10 81-10 56 0 99 15 131 46 31 31 49 77 55 139-22-16-46-29-71-37s-52-12-81-12c-75 0-135 21-181 65-46 43-68 100-68 172 0 78 25 141 76 188s119 71 205 71c95 0 169-32 221-96s78-155 78-272c0-121-31-216-92-284S396-13 290-13c-34 0-67 3-98 7-32 5-62 12-92 22zm232 351c32 0 57 10 74 32 16 21 25 53 25 96 0 42-9 74-25 96-17 21-42 32-74 32-33 0-58-11-74-32-17-22-25-54-25-96 0-43 8-75 25-96 16-22 41-32 74-32z"/></symbol><use xlink:href="#U" transform="matrix(12 0 0 -12 105.595 339.838)"/><use xlink:href="#R" transform="matrix(12 0 0 -12 254.56 251.49)"/><use xlink:href="#P" transform="matrix(12 0 0 -12 278.7 278.04)"/><use xlink:href="#T" transform="matrix(12 0 0 -12 302.6 304.434)"/><use xlink:href="#U" transform="matrix(12 0 0 -12 326.439 331.14)"/><use xlink:href="#N" transform="matrix(12 0 0 -12 258.859 175.525)"/><use xlink:href="#O" transform="matrix(12 0 0 -12 267.079 175.525)"/><use xlink:href="#P" transform="matrix(12 0 0 -12 271.339 175.681)"/><use xlink:href="#Q" transform="matrix(12 0 0 -12 283.767 150.209)"/><use xlink:href="#O" transform="matrix(12 0 0 -12 292.395 150.209)"/><use xlink:href="#P" transform="matrix(12 0 0 -12 296.655 150.365)"/><use xlink:href="#R" transform="matrix(12 0 0 -12 308.94 125.048)"/><use xlink:href="#O" transform="matrix(12 0 0 -12 317.712 124.892)"/><use xlink:href="#P" transform="matrix(12 0 0 -12 321.972 125.048)"/><path stroke-width="2.5" stroke-linecap="square" stroke-linejoin="round" fill="none" stroke="#1f77b4" d="M333.348 231.725h24"/><path d="M345.348 234.725a3 3 0 1 0 0-6 3 3 0 0 0 0 6z" fill="#1f77b4"/><path stroke-linejoin="round" fill="none" stroke="#1f77b4" d="M345.348 234.725a3 3 0 1 0 0-6 3 3 0 0 0 0 6z"/><symbol id="V"><path transform="translate(-.098) scale(.001)" d="M197 348V81h158c53 0 92 11 118 33 25 22 38 55 38 101 0 45-13 78-38 100-26 22-65 33-118 33H197zm0 300V428h146c48 0 83 9 107 27s36 45 36 83c0 36-12 64-36 82s-59 28-107 28H197zm-99 81h252c75 0 133-16 174-47 40-32 61-76 61-133 0-45-11-81-32-107s-51-43-91-49c48-11 86-33 113-66 26-33 40-74 40-123 0-66-23-116-67-151C504 17 441 0 360 0H98v729z"/></symbol><symbol id="W"><path transform="translate(-.008) scale(.001)" d="M286 0 8 729h103l231-614 231 614h103L398 0H286z"/></symbol><symbol id="X"><path transform="translate(-.098) scale(.001)" d="M98 729h99V0H98v729z"/></symbol><symbol id="Y"><path transform="matrix(.001 0 0 .001 -.049 -.234)" d="M49 314h263v-80H49v80z"/></symbol><symbol id="Z"><path transform="translate(-.098) scale(.001)" d="M197 648V81h119c100 0 174 22 221 68 46 46 70 118 70 216s-24 169-70 215c-47 45-121 68-221 68H197zm-99 81h203c141 0 245-30 311-88 66-59 99-151 99-276 0-126-34-218-100-277S441 0 301 0H98v729z"/></symbol><symbol id="aa"><path transform="matrix(.001 0 0 .001 -.056 .013)" d="M644 673V569c-34 30-69 53-107 69-38 15-77 23-119 23-84 0-148-26-192-77s-66-124-66-220 22-170 66-221 108-76 192-76c42 0 81 7 119 23 38 15 73 38 107 69V56c-35-24-72-41-110-52s-79-17-122-17C302-13 215 20 151 87S56 246 56 364c0 117 31 209 95 277 64 67 151 101 261 101 44 0 85-6 123-17 38-12 75-29 109-52z"/></symbol><use xlink:href="#V" transform="matrix(12 0 0 -12 368.124 235.925)"/><use xlink:href="#W" transform="matrix(12 0 0 -12 374.917 235.925)"/><use xlink:href="#X" transform="matrix(12 0 0 -12 384.205 235.925)"/><use xlink:href="#Y" transform="matrix(12 0 0 -12 387.157 233.117)"/><use xlink:href="#Z" transform="matrix(12 0 0 -12 392.077 235.925)"/><use xlink:href="#W" transform="matrix(12 0 0 -12 400.034 235.925)"/><use xlink:href="#aa" transform="matrix(12 0 0 -12 408.818 236.081)"/><path stroke-width="2.5" stroke-linecap="square" stroke-linejoin="round" fill="none" stroke="#ff7f0e" d="M333.348 249.35h24"/><path d="M345.348 252.35a3 3 0 1 0 0-6 3 3 0 0 0 0 6z" fill="#ff7f0e"/><path stroke-linejoin="round" fill="none" stroke="#ff7f0e" d="M345.348 252.35a3 3 0 1 0 0-6 3 3 0 0 0 0 6z"/><symbol id="ab"><path transform="translate(-.008) scale(.001)" d="M342 632 208 269h268L342 632zm-56 97h112L676 0H573l-66 187H178L112 0H8l278 729z"/></symbol><symbol id="ac"><path transform="matrix(.001 0 0 .001 -.056 .013)" d="M394 662c-72 0-129-27-171-80-42-54-63-126-63-218s21-165 63-218c42-54 99-80 171-80 71 0 128 26 170 80 42 53 63 126 63 218s-21 164-63 218c-42 53-99 80-170 80zm0 80c102 0 183-35 245-103 61-68 92-160 92-275 0-116-31-207-92-275C577 21 496-13 394-13 291-13 209 21 148 89c-62 68-92 159-92 275 0 115 30 207 92 275 61 68 143 103 246 103z"/></symbol><symbol id="ad"><path transform="translate(-.098) scale(.001)" d="M98 729h147l186-496 187 496h147V0h-96v640L481 140h-99L194 640V0H98v729z"/></symbol><use xlink:href="#V" transform="matrix(12 0 0 -12 368.124 253.55)"/><use xlink:href="#W" transform="matrix(12 0 0 -12 374.917 253.55)"/><use xlink:href="#X" transform="matrix(12 0 0 -12 384.205 253.55)"/><use xlink:href="#Y" transform="matrix(12 0 0 -12 387.157 250.742)"/><use xlink:href="#ab" transform="matrix(12 0 0 -12 390.747 253.55)"/><use xlink:href="#ac" transform="matrix(12 0 0 -12 399.328 253.706)"/><use xlink:href="#ad" transform="matrix(12 0 0 -12 409.276 253.55)"/></svg>